<mxfile host="app.diagrams.net" agent="Mozilla/5.0 (Windows NT 10.0; Win64; x64) AppleWebKit/537.36 (KHTML, like Gecko) Chrome/132.0.0.0 Safari/537.36 Edg/132.0.0.0" version="26.0.10">
  <diagram name="Page-1" id="42789a77-a242-8287-6e28-9cd8cfd52e62">
    <mxGraphModel dx="2693" dy="1183" grid="1" gridSize="10" guides="1" tooltips="1" connect="1" arrows="1" fold="1" page="1" pageScale="1" pageWidth="1100" pageHeight="850" background="none" math="0" shadow="0">
      <root>
        <mxCell id="0" />
        <mxCell id="1" parent="0" />
        <mxCell id="1ea317790d2ca983-12" style="edgeStyle=none;rounded=1;html=1;labelBackgroundColor=none;startArrow=none;startFill=0;startSize=5;endArrow=classicThin;endFill=1;endSize=5;jettySize=auto;orthogonalLoop=1;strokeColor=#B3B3B3;strokeWidth=1;fontFamily=Verdana;fontSize=12" parent="1" source="1ea317790d2ca983-1" target="1ea317790d2ca983-2" edge="1">
          <mxGeometry relative="1" as="geometry" />
        </mxCell>
        <mxCell id="mRC1hhXq19zuk7EEk1_k-3" value="iniciar =1" style="edgeLabel;html=1;align=center;verticalAlign=middle;resizable=0;points=[];" vertex="1" connectable="0" parent="1ea317790d2ca983-12">
          <mxGeometry x="-0.4889" y="2" relative="1" as="geometry">
            <mxPoint x="27" y="2" as="offset" />
          </mxGeometry>
        </mxCell>
        <mxCell id="1ea317790d2ca983-1" value="inicial" style="ellipse;whiteSpace=wrap;html=1;rounded=0;shadow=1;comic=0;labelBackgroundColor=none;strokeWidth=1;fontFamily=Verdana;fontSize=12;align=center;" parent="1" vertex="1">
          <mxGeometry x="-40" y="425" width="90" height="60" as="geometry" />
        </mxCell>
        <mxCell id="1ea317790d2ca983-2" value="preparação" style="ellipse;whiteSpace=wrap;html=1;rounded=0;shadow=1;comic=0;labelBackgroundColor=none;strokeWidth=1;fontFamily=Verdana;fontSize=12;align=center;" parent="1" vertex="1">
          <mxGeometry x="140" y="420" width="75" height="65" as="geometry" />
        </mxCell>
        <mxCell id="mRC1hhXq19zuk7EEk1_k-1" style="edgeStyle=none;rounded=1;html=1;labelBackgroundColor=none;startArrow=none;startFill=0;startSize=5;endArrow=classicThin;endFill=1;endSize=5;jettySize=auto;orthogonalLoop=1;strokeColor=#B3B3B3;strokeWidth=1;fontFamily=Verdana;fontSize=12" edge="1" parent="1">
          <mxGeometry relative="1" as="geometry">
            <mxPoint x="-130" y="454.5" as="sourcePoint" />
            <mxPoint x="-40" y="454.5" as="targetPoint" />
          </mxGeometry>
        </mxCell>
        <mxCell id="mRC1hhXq19zuk7EEk1_k-2" value="estado inicial" style="edgeLabel;html=1;align=center;verticalAlign=middle;resizable=0;points=[];" vertex="1" connectable="0" parent="mRC1hhXq19zuk7EEk1_k-1">
          <mxGeometry x="-0.5422" y="2" relative="1" as="geometry">
            <mxPoint x="19" y="3" as="offset" />
          </mxGeometry>
        </mxCell>
        <mxCell id="mRC1hhXq19zuk7EEk1_k-5" value="" style="endArrow=classic;html=1;rounded=0;curved=1;entryX=0.749;entryY=0.087;entryDx=0;entryDy=0;entryPerimeter=0;exitX=0.198;exitY=0.033;exitDx=0;exitDy=0;exitPerimeter=0;" edge="1" parent="1">
          <mxGeometry relative="1" as="geometry">
            <mxPoint x="-20.180000000000064" y="426.98" as="sourcePoint" />
            <mxPoint x="29.409999999999854" y="430.22" as="targetPoint" />
            <Array as="points">
              <mxPoint x="2" y="400" />
            </Array>
          </mxGeometry>
        </mxCell>
        <mxCell id="mRC1hhXq19zuk7EEk1_k-6" value="iniciar = 0" style="edgeLabel;resizable=0;html=1;;align=center;verticalAlign=middle;" connectable="0" vertex="1" parent="mRC1hhXq19zuk7EEk1_k-5">
          <mxGeometry relative="1" as="geometry" />
        </mxCell>
        <mxCell id="mRC1hhXq19zuk7EEk1_k-7" value="inicia sequência" style="ellipse;whiteSpace=wrap;html=1;rounded=0;shadow=1;comic=0;labelBackgroundColor=none;strokeWidth=1;fontFamily=Verdana;fontSize=12;align=center;strokeColor=#0000FF;" vertex="1" parent="1">
          <mxGeometry x="250" y="340" width="75" height="100" as="geometry" />
        </mxCell>
        <mxCell id="mRC1hhXq19zuk7EEk1_k-8" value="" style="endArrow=classic;html=1;rounded=0;curved=1;exitX=0.5;exitY=0;exitDx=0;exitDy=0;entryX=0;entryY=0.5;entryDx=0;entryDy=0;" edge="1" parent="1" source="1ea317790d2ca983-2" target="mRC1hhXq19zuk7EEk1_k-7">
          <mxGeometry relative="1" as="geometry">
            <mxPoint x="180" y="410" as="sourcePoint" />
            <mxPoint x="280" y="410" as="targetPoint" />
            <Array as="points">
              <mxPoint x="210" y="370" />
            </Array>
          </mxGeometry>
        </mxCell>
        <mxCell id="mRC1hhXq19zuk7EEk1_k-10" value="" style="endArrow=classic;html=1;rounded=0;curved=1;exitX=1;exitY=0.5;exitDx=0;exitDy=0;entryX=0;entryY=0.5;entryDx=0;entryDy=0;" edge="1" parent="1" source="mRC1hhXq19zuk7EEk1_k-7" target="mRC1hhXq19zuk7EEk1_k-11">
          <mxGeometry relative="1" as="geometry">
            <mxPoint x="340" y="370" as="sourcePoint" />
            <mxPoint x="380" y="370" as="targetPoint" />
            <Array as="points">
              <mxPoint x="360" y="370" />
            </Array>
          </mxGeometry>
        </mxCell>
        <mxCell id="mRC1hhXq19zuk7EEk1_k-27" value="" style="edgeStyle=orthogonalEdgeStyle;rounded=0;orthogonalLoop=1;jettySize=auto;html=1;" edge="1" parent="1" source="mRC1hhXq19zuk7EEk1_k-11" target="mRC1hhXq19zuk7EEk1_k-26">
          <mxGeometry relative="1" as="geometry" />
        </mxCell>
        <mxCell id="mRC1hhXq19zuk7EEk1_k-28" value="jogada&amp;nbsp; =1" style="edgeLabel;html=1;align=center;verticalAlign=middle;resizable=0;points=[];" vertex="1" connectable="0" parent="mRC1hhXq19zuk7EEk1_k-27">
          <mxGeometry x="-0.5822" y="3" relative="1" as="geometry">
            <mxPoint x="19" y="3" as="offset" />
          </mxGeometry>
        </mxCell>
        <mxCell id="mRC1hhXq19zuk7EEk1_k-11" value="espera" style="ellipse;whiteSpace=wrap;html=1;rounded=0;shadow=1;comic=0;labelBackgroundColor=none;strokeWidth=1;fontFamily=Verdana;fontSize=12;align=center;" vertex="1" parent="1">
          <mxGeometry x="380" y="340" width="75" height="60" as="geometry" />
        </mxCell>
        <mxCell id="mRC1hhXq19zuk7EEk1_k-16" value="" style="endArrow=classic;html=1;rounded=0;curved=1;entryX=0.765;entryY=0.034;entryDx=0;entryDy=0;entryPerimeter=0;exitX=0;exitY=0;exitDx=0;exitDy=0;" edge="1" parent="1" source="mRC1hhXq19zuk7EEk1_k-11" target="mRC1hhXq19zuk7EEk1_k-11">
          <mxGeometry relative="1" as="geometry">
            <mxPoint x="392.7099999999999" y="316.98" as="sourcePoint" />
            <mxPoint x="442.29999999999984" y="320.22" as="targetPoint" />
            <Array as="points">
              <mxPoint x="414.89" y="290" />
            </Array>
          </mxGeometry>
        </mxCell>
        <mxCell id="mRC1hhXq19zuk7EEk1_k-17" value="jogada = 0&lt;div&gt;fim_timer = 0&lt;/div&gt;" style="edgeLabel;resizable=0;html=1;;align=center;verticalAlign=middle;" connectable="0" vertex="1" parent="mRC1hhXq19zuk7EEk1_k-16">
          <mxGeometry relative="1" as="geometry">
            <mxPoint x="-4" y="7" as="offset" />
          </mxGeometry>
        </mxCell>
        <mxCell id="mRC1hhXq19zuk7EEk1_k-18" value="timeout" style="ellipse;whiteSpace=wrap;html=1;rounded=0;shadow=1;comic=0;labelBackgroundColor=none;strokeWidth=1;fontFamily=Verdana;fontSize=12;align=center;" vertex="1" parent="1">
          <mxGeometry x="380" y="470" width="75" height="60" as="geometry" />
        </mxCell>
        <mxCell id="mRC1hhXq19zuk7EEk1_k-19" value="" style="endArrow=classic;html=1;rounded=0;exitX=0.5;exitY=1;exitDx=0;exitDy=0;entryX=0.5;entryY=0;entryDx=0;entryDy=0;" edge="1" parent="1" source="mRC1hhXq19zuk7EEk1_k-11" target="mRC1hhXq19zuk7EEk1_k-18">
          <mxGeometry width="50" height="50" relative="1" as="geometry">
            <mxPoint x="350" y="510" as="sourcePoint" />
            <mxPoint x="400" y="460" as="targetPoint" />
          </mxGeometry>
        </mxCell>
        <mxCell id="mRC1hhXq19zuk7EEk1_k-20" value="fim_timer&amp;nbsp; = 1" style="edgeLabel;html=1;align=center;verticalAlign=middle;resizable=0;points=[];" vertex="1" connectable="0" parent="mRC1hhXq19zuk7EEk1_k-19">
          <mxGeometry x="-0.2603" y="-1" relative="1" as="geometry">
            <mxPoint as="offset" />
          </mxGeometry>
        </mxCell>
        <mxCell id="mRC1hhXq19zuk7EEk1_k-21" value="" style="endArrow=classic;html=1;rounded=0;entryX=1;entryY=1;entryDx=0;entryDy=0;exitX=0;exitY=0.5;exitDx=0;exitDy=0;curved=1;" edge="1" parent="1" source="mRC1hhXq19zuk7EEk1_k-18" target="1ea317790d2ca983-2">
          <mxGeometry relative="1" as="geometry">
            <mxPoint x="330" y="480" as="sourcePoint" />
            <mxPoint x="430" y="480" as="targetPoint" />
            <Array as="points">
              <mxPoint x="280" y="500" />
            </Array>
          </mxGeometry>
        </mxCell>
        <mxCell id="mRC1hhXq19zuk7EEk1_k-22" value="iniciar =1" style="edgeLabel;resizable=0;html=1;;align=center;verticalAlign=middle;" connectable="0" vertex="1" parent="mRC1hhXq19zuk7EEk1_k-21">
          <mxGeometry relative="1" as="geometry" />
        </mxCell>
        <mxCell id="mRC1hhXq19zuk7EEk1_k-24" style="edgeStyle=orthogonalEdgeStyle;rounded=0;orthogonalLoop=1;jettySize=auto;html=1;exitX=1;exitY=0;exitDx=0;exitDy=0;entryX=1;entryY=1;entryDx=0;entryDy=0;curved=1;" edge="1" parent="1" source="mRC1hhXq19zuk7EEk1_k-18" target="mRC1hhXq19zuk7EEk1_k-18">
          <mxGeometry relative="1" as="geometry">
            <Array as="points">
              <mxPoint x="444" y="470" />
              <mxPoint x="475" y="470" />
              <mxPoint x="475" y="540" />
              <mxPoint x="444" y="540" />
            </Array>
          </mxGeometry>
        </mxCell>
        <mxCell id="mRC1hhXq19zuk7EEk1_k-25" value="iniciar =0" style="edgeLabel;html=1;align=center;verticalAlign=middle;resizable=0;points=[];" vertex="1" connectable="0" parent="mRC1hhXq19zuk7EEk1_k-24">
          <mxGeometry x="-0.027" y="-1" relative="1" as="geometry">
            <mxPoint x="16" y="-8" as="offset" />
          </mxGeometry>
        </mxCell>
        <mxCell id="mRC1hhXq19zuk7EEk1_k-32" value="" style="edgeStyle=orthogonalEdgeStyle;rounded=0;orthogonalLoop=1;jettySize=auto;html=1;" edge="1" parent="1" source="mRC1hhXq19zuk7EEk1_k-26" target="mRC1hhXq19zuk7EEk1_k-31">
          <mxGeometry relative="1" as="geometry" />
        </mxCell>
        <mxCell id="mRC1hhXq19zuk7EEk1_k-26" value="registra" style="ellipse;whiteSpace=wrap;html=1;rounded=0;shadow=1;comic=0;labelBackgroundColor=none;strokeWidth=1;fontFamily=Verdana;fontSize=12;align=center;" vertex="1" parent="1">
          <mxGeometry x="530" y="340" width="75" height="60" as="geometry" />
        </mxCell>
        <mxCell id="mRC1hhXq19zuk7EEk1_k-34" value="" style="edgeStyle=orthogonalEdgeStyle;rounded=0;orthogonalLoop=1;jettySize=auto;html=1;" edge="1" parent="1" source="mRC1hhXq19zuk7EEk1_k-31" target="mRC1hhXq19zuk7EEk1_k-33">
          <mxGeometry relative="1" as="geometry" />
        </mxCell>
        <mxCell id="mRC1hhXq19zuk7EEk1_k-37" value="igual = 1&lt;div&gt;&lt;font style=&quot;color: rgb(0, 0, 255);&quot;&gt;fim sequencia = 0&lt;/font&gt;&lt;/div&gt;" style="edgeLabel;html=1;align=center;verticalAlign=middle;resizable=0;points=[];" vertex="1" connectable="0" parent="mRC1hhXq19zuk7EEk1_k-34">
          <mxGeometry x="0.0694" y="3" relative="1" as="geometry">
            <mxPoint x="3" y="12" as="offset" />
          </mxGeometry>
        </mxCell>
        <mxCell id="mRC1hhXq19zuk7EEk1_k-39" value="" style="edgeStyle=orthogonalEdgeStyle;rounded=0;orthogonalLoop=1;jettySize=auto;html=1;entryX=0.5;entryY=0;entryDx=0;entryDy=0;" edge="1" parent="1" source="mRC1hhXq19zuk7EEk1_k-31" target="mRC1hhXq19zuk7EEk1_k-41">
          <mxGeometry relative="1" as="geometry">
            <mxPoint x="677.5" y="480.0000000000002" as="targetPoint" />
          </mxGeometry>
        </mxCell>
        <mxCell id="mRC1hhXq19zuk7EEk1_k-40" value="igual = 0" style="edgeLabel;html=1;align=center;verticalAlign=middle;resizable=0;points=[];" vertex="1" connectable="0" parent="mRC1hhXq19zuk7EEk1_k-39">
          <mxGeometry x="-0.0417" y="2" relative="1" as="geometry">
            <mxPoint y="1" as="offset" />
          </mxGeometry>
        </mxCell>
        <mxCell id="mRC1hhXq19zuk7EEk1_k-47" value="" style="edgeStyle=orthogonalEdgeStyle;rounded=0;orthogonalLoop=1;jettySize=auto;html=1;" edge="1" parent="1" source="mRC1hhXq19zuk7EEk1_k-31" target="mRC1hhXq19zuk7EEk1_k-46">
          <mxGeometry relative="1" as="geometry" />
        </mxCell>
        <mxCell id="mRC1hhXq19zuk7EEk1_k-48" value="igual =1&lt;div&gt;&lt;font style=&quot;color: rgb(0, 0, 255);&quot;&gt;fim sequencia = 1&lt;/font&gt;&lt;/div&gt;" style="edgeLabel;html=1;align=center;verticalAlign=middle;resizable=0;points=[];" vertex="1" connectable="0" parent="mRC1hhXq19zuk7EEk1_k-47">
          <mxGeometry x="-0.5672" y="2" relative="1" as="geometry">
            <mxPoint x="41" y="2" as="offset" />
          </mxGeometry>
        </mxCell>
        <mxCell id="mRC1hhXq19zuk7EEk1_k-31" value="compara" style="ellipse;whiteSpace=wrap;html=1;rounded=0;shadow=1;comic=0;labelBackgroundColor=none;strokeWidth=1;fontFamily=Verdana;fontSize=12;align=center;" vertex="1" parent="1">
          <mxGeometry x="640" y="340" width="75" height="60" as="geometry" />
        </mxCell>
        <mxCell id="mRC1hhXq19zuk7EEk1_k-36" style="rounded=0;orthogonalLoop=1;jettySize=auto;html=1;entryX=1;entryY=0;entryDx=0;entryDy=0;" edge="1" parent="1" source="mRC1hhXq19zuk7EEk1_k-33" target="mRC1hhXq19zuk7EEk1_k-11">
          <mxGeometry relative="1" as="geometry" />
        </mxCell>
        <mxCell id="mRC1hhXq19zuk7EEk1_k-33" value="proxima jogada" style="ellipse;whiteSpace=wrap;html=1;rounded=0;shadow=1;comic=0;labelBackgroundColor=none;strokeWidth=1;fontFamily=Verdana;fontSize=12;align=center;" vertex="1" parent="1">
          <mxGeometry x="640" y="200" width="75" height="60" as="geometry" />
        </mxCell>
        <mxCell id="mRC1hhXq19zuk7EEk1_k-44" style="rounded=0;orthogonalLoop=1;jettySize=auto;html=1;entryX=0.5;entryY=1;entryDx=0;entryDy=0;curved=1;" edge="1" parent="1" source="mRC1hhXq19zuk7EEk1_k-41" target="1ea317790d2ca983-2">
          <mxGeometry relative="1" as="geometry">
            <Array as="points">
              <mxPoint x="360" y="600" />
            </Array>
          </mxGeometry>
        </mxCell>
        <mxCell id="mRC1hhXq19zuk7EEk1_k-45" value="iniciar =1" style="edgeLabel;html=1;align=center;verticalAlign=middle;resizable=0;points=[];" vertex="1" connectable="0" parent="mRC1hhXq19zuk7EEk1_k-44">
          <mxGeometry x="0.2447" y="-35" relative="1" as="geometry">
            <mxPoint as="offset" />
          </mxGeometry>
        </mxCell>
        <mxCell id="mRC1hhXq19zuk7EEk1_k-41" value="errou" style="ellipse;whiteSpace=wrap;html=1;rounded=0;shadow=1;comic=0;labelBackgroundColor=none;strokeWidth=1;fontFamily=Verdana;fontSize=12;align=center;" vertex="1" parent="1">
          <mxGeometry x="640" y="500" width="75" height="60" as="geometry" />
        </mxCell>
        <mxCell id="mRC1hhXq19zuk7EEk1_k-42" style="edgeStyle=orthogonalEdgeStyle;rounded=0;orthogonalLoop=1;jettySize=auto;html=1;exitX=1;exitY=0;exitDx=0;exitDy=0;entryX=1;entryY=1;entryDx=0;entryDy=0;curved=1;" edge="1" parent="1" source="mRC1hhXq19zuk7EEk1_k-41" target="mRC1hhXq19zuk7EEk1_k-41">
          <mxGeometry relative="1" as="geometry">
            <Array as="points">
              <mxPoint x="704" y="500" />
              <mxPoint x="735" y="500" />
              <mxPoint x="735" y="570" />
              <mxPoint x="704" y="570" />
            </Array>
          </mxGeometry>
        </mxCell>
        <mxCell id="mRC1hhXq19zuk7EEk1_k-43" value="iniciar =0" style="edgeLabel;html=1;align=center;verticalAlign=middle;resizable=0;points=[];" vertex="1" connectable="0" parent="mRC1hhXq19zuk7EEk1_k-42">
          <mxGeometry x="-0.027" y="-1" relative="1" as="geometry">
            <mxPoint x="16" y="-8" as="offset" />
          </mxGeometry>
        </mxCell>
        <mxCell id="mRC1hhXq19zuk7EEk1_k-50" value="" style="rounded=0;orthogonalLoop=1;jettySize=auto;html=1;" edge="1" parent="1" source="mRC1hhXq19zuk7EEk1_k-46" target="mRC1hhXq19zuk7EEk1_k-49">
          <mxGeometry relative="1" as="geometry" />
        </mxCell>
        <mxCell id="mRC1hhXq19zuk7EEk1_k-52" value="&lt;font color=&quot;#0000ff&quot;&gt;ultima_sequencia = 0&lt;/font&gt;" style="edgeLabel;html=1;align=center;verticalAlign=middle;resizable=0;points=[];" vertex="1" connectable="0" parent="mRC1hhXq19zuk7EEk1_k-50">
          <mxGeometry x="0.0079" y="-1" relative="1" as="geometry">
            <mxPoint x="1" as="offset" />
          </mxGeometry>
        </mxCell>
        <mxCell id="mRC1hhXq19zuk7EEk1_k-54" value="" style="edgeStyle=orthogonalEdgeStyle;rounded=0;orthogonalLoop=1;jettySize=auto;html=1;" edge="1" parent="1" source="mRC1hhXq19zuk7EEk1_k-46" target="mRC1hhXq19zuk7EEk1_k-53">
          <mxGeometry relative="1" as="geometry" />
        </mxCell>
        <mxCell id="mRC1hhXq19zuk7EEk1_k-56" value="&lt;font style=&quot;color: rgb(0, 0, 255);&quot;&gt;ultima_sequencia = 1&lt;/font&gt;" style="edgeLabel;html=1;align=center;verticalAlign=middle;resizable=0;points=[];" vertex="1" connectable="0" parent="mRC1hhXq19zuk7EEk1_k-54">
          <mxGeometry x="-0.2792" y="3" relative="1" as="geometry">
            <mxPoint as="offset" />
          </mxGeometry>
        </mxCell>
        <mxCell id="mRC1hhXq19zuk7EEk1_k-46" value="avalia sequência" style="ellipse;whiteSpace=wrap;html=1;rounded=0;shadow=1;comic=0;labelBackgroundColor=none;strokeWidth=1;fontFamily=Verdana;fontSize=12;align=center;strokeColor=#0000FF;" vertex="1" parent="1">
          <mxGeometry x="870" y="340" width="75" height="60" as="geometry" />
        </mxCell>
        <mxCell id="mRC1hhXq19zuk7EEk1_k-62" style="edgeStyle=orthogonalEdgeStyle;rounded=0;orthogonalLoop=1;jettySize=auto;html=1;exitX=0.5;exitY=0;exitDx=0;exitDy=0;entryX=0.5;entryY=0;entryDx=0;entryDy=0;curved=1;strokeColor=default;" edge="1" parent="1" source="mRC1hhXq19zuk7EEk1_k-49" target="mRC1hhXq19zuk7EEk1_k-7">
          <mxGeometry relative="1" as="geometry">
            <Array as="points">
              <mxPoint x="1038" y="140" />
              <mxPoint x="288" y="140" />
            </Array>
          </mxGeometry>
        </mxCell>
        <mxCell id="mRC1hhXq19zuk7EEk1_k-49" value="próxima sequência" style="ellipse;whiteSpace=wrap;html=1;rounded=0;shadow=1;comic=0;labelBackgroundColor=none;strokeWidth=1;fontFamily=Verdana;fontSize=12;align=center;strokeColor=#0000FF;" vertex="1" parent="1">
          <mxGeometry x="1000" y="250" width="75" height="60" as="geometry" />
        </mxCell>
        <mxCell id="mRC1hhXq19zuk7EEk1_k-60" style="rounded=0;orthogonalLoop=1;jettySize=auto;html=1;entryX=0.5;entryY=1;entryDx=0;entryDy=0;curved=1;" edge="1" parent="1" source="mRC1hhXq19zuk7EEk1_k-53" target="1ea317790d2ca983-2">
          <mxGeometry relative="1" as="geometry">
            <Array as="points">
              <mxPoint x="600" y="760" />
            </Array>
          </mxGeometry>
        </mxCell>
        <mxCell id="mRC1hhXq19zuk7EEk1_k-61" value="iniciar = 1" style="edgeLabel;html=1;align=center;verticalAlign=middle;resizable=0;points=[];" vertex="1" connectable="0" parent="mRC1hhXq19zuk7EEk1_k-60">
          <mxGeometry x="-0.3606" y="-90" relative="1" as="geometry">
            <mxPoint as="offset" />
          </mxGeometry>
        </mxCell>
        <mxCell id="mRC1hhXq19zuk7EEk1_k-53" value="acertou" style="ellipse;whiteSpace=wrap;html=1;rounded=0;shadow=1;comic=0;labelBackgroundColor=none;strokeWidth=1;fontFamily=Verdana;fontSize=12;align=center;strokeColor=#0000FF;" vertex="1" parent="1">
          <mxGeometry x="870" y="480" width="75" height="60" as="geometry" />
        </mxCell>
        <mxCell id="mRC1hhXq19zuk7EEk1_k-57" style="rounded=0;orthogonalLoop=1;jettySize=auto;html=1;exitX=1;exitY=0;exitDx=0;exitDy=0;entryX=1;entryY=1;entryDx=0;entryDy=0;curved=1;" edge="1" parent="1" source="mRC1hhXq19zuk7EEk1_k-53" target="mRC1hhXq19zuk7EEk1_k-53">
          <mxGeometry relative="1" as="geometry">
            <Array as="points">
              <mxPoint x="990" y="510" />
            </Array>
            <mxPoint x="960" y="474" as="sourcePoint" />
            <mxPoint x="960" y="516" as="targetPoint" />
          </mxGeometry>
        </mxCell>
        <mxCell id="mRC1hhXq19zuk7EEk1_k-58" value="iniciar =0" style="edgeLabel;html=1;align=center;verticalAlign=middle;resizable=0;points=[];" vertex="1" connectable="0" parent="mRC1hhXq19zuk7EEk1_k-57">
          <mxGeometry x="-0.027" y="-1" relative="1" as="geometry">
            <mxPoint x="2" as="offset" />
          </mxGeometry>
        </mxCell>
      </root>
    </mxGraphModel>
  </diagram>
</mxfile>
